<?xml version="1.0" encoding="utf-8"?>
<!-- Generator: Adobe Illustrator 19.0.0, SVG Export Plug-In . SVG Version: 6.00 Build 0)  -->
<svg version="1.1" id="Layer_1" xmlns="http://www.w3.org/2000/svg" xmlns:xlink="http://www.w3.org/1999/xlink" x="0px" y="0px"
	 viewBox="0 0 960 560" style="enable-background:new 0 0 960 560;" xml:space="preserve">
<style type="text/css">
	.st0{fill:#7F7F7F;}
	.st1{fill:none;stroke:#FFFFFF;stroke-width:4;stroke-miterlimit:10;stroke-dasharray:10,7;}
	.st2{opacity:0.1;fill:#62C3EF;}
	.st3{fill:#C1BBB2;stroke:#34508B;stroke-width:3;stroke-linecap:round;stroke-linejoin:round;stroke-miterlimit:10;}
	.st4{fill:#F5FBFF;stroke:#34508B;stroke-width:3;stroke-linecap:round;stroke-linejoin:round;stroke-miterlimit:10;}
	.st5{fill:#BDE05C;stroke:#34508B;stroke-width:3;stroke-linecap:round;stroke-linejoin:round;stroke-miterlimit:10;}
	.st6{fill:#CCEF7F;stroke:#34508B;stroke-width:3;stroke-linecap:round;stroke-linejoin:round;stroke-miterlimit:10;}
	.st7{fill:#B28F6D;stroke:#34508B;stroke-width:3;stroke-linecap:round;stroke-linejoin:round;stroke-miterlimit:10;}
	.st8{fill:#A5D996;stroke:#34508B;stroke-width:3;stroke-linecap:round;stroke-linejoin:round;stroke-miterlimit:10;}
	.st9{fill:#FFFFFF;stroke:#34508B;stroke-width:3;stroke-linecap:round;stroke-linejoin:round;stroke-miterlimit:10;}
	.st10{fill:#F7AB6F;stroke:#34508B;stroke-width:3;stroke-linecap:round;stroke-linejoin:round;stroke-miterlimit:10;}
	.st11{fill:none;stroke:#34508B;stroke-width:3;stroke-linecap:round;stroke-linejoin:round;stroke-miterlimit:10;}
	.st12{fill:#62C3EF;stroke:#34508B;stroke-width:3;stroke-linecap:round;stroke-linejoin:round;stroke-miterlimit:10;}
	.st13{fill:#93BA86;stroke:#34508B;stroke-width:3;stroke-linecap:round;stroke-linejoin:round;stroke-miterlimit:10;}
	.st14{fill:#3BDDBA;stroke:#34508B;stroke-width:3;stroke-linecap:round;stroke-linejoin:round;stroke-miterlimit:10;}
	.st15{fill:#FFD3A2;stroke:#34508B;stroke-width:3;stroke-linecap:round;stroke-linejoin:round;stroke-miterlimit:10;}
	.st16{fill:#34508B;}
	.st17{fill:#34508B;stroke:#34508B;stroke-width:3;stroke-linecap:round;stroke-linejoin:round;stroke-miterlimit:10;}
</style>
<g id="XMLID_173_">
	<rect id="XMLID_175_" y="339.5" class="st0" width="960" height="27.4"/>
	<line id="XMLID_174_" class="st1" x1="28.8" y1="353.2" x2="929.8" y2="353.2"/>
</g>
<g id="XMLID_169_">
	<polygon id="XMLID_172_" class="st2" points="310.5,206.4 218.6,301.7 317.9,301.7 402.4,301.7 	"/>
	<polygon id="XMLID_171_" class="st2" points="435.8,178.2 316.7,301.7 445.4,301.7 554.9,301.7 	"/>
	<polygon id="XMLID_170_" class="st2" points="515,178.2 396,301.7 524.7,301.7 634.1,301.7 	"/>
</g>
<g id="XMLID_166_">
	<polygon id="XMLID_168_" class="st3" points="252.4,301.7 371.5,178.2 490.6,301.7 	"/>
	<polygon id="XMLID_167_" class="st4" points="371.5,178.2 390.5,237.5 371.5,237.5 381.1,301.7 490.6,301.7 	"/>
</g>
<path id="XMLID_165_" class="st5" d="M334.1,301.7l79.9-47c20.5-12.1,45.7-13,67-2.5l101.1,49.6H334.1z"/>
<path id="XMLID_157_" class="st6" d="M230.9,301.7l71-41.8c18.2-10.7,40.6-11.6,59.6-2.3l89.8,44.1H230.9z"/>
<path id="XMLID_156_" class="st7" d="M192.2,339.5H797v-7c0-17.1-13.8-30.9-30.9-30.9h-543c-17.1,0-30.9,13.8-30.9,30.9V339.5z"/>
<path id="XMLID_155_" class="st7" d="M797,367.2H192.2v7c0,17.1,13.8,30.9,30.9,30.9h543c17.1,0,30.9-13.8,30.9-30.9V367.2z"/>
<path id="XMLID_153_" class="st8" d="M193.1,320.6h400.8v-18.9H218.1C206.2,301.7,196.2,309.7,193.1,320.6z"/>
<g id="XMLID_135_">
	<polygon id="XMLID_137_" class="st3" points="524.6,301.7 643.7,178.2 762.8,301.7 	"/>
	<polygon id="XMLID_136_" class="st4" points="643.7,178.2 662.7,237.5 643.7,237.5 653.3,301.7 762.8,301.7 	"/>
</g>
<line id="XMLID_134_" class="st9" x1="0.5" y1="366.9" x2="959.5" y2="366.9"/>
<line id="XMLID_133_" class="st9" x1="0.5" y1="339.5" x2="959.5" y2="339.5"/>
<g id="XMLID_72_">
	<g id="XMLID_115_">
		<path id="XMLID_132_" class="st10" d="M237.3,366.9v68.4c0,9,7.9,16.3,17.6,16.3h92.7c9.7,0,17.6-7.3,17.6-16.3l0-68.4l-9.6,0
			v68.4c0,4.1-3.6,7.4-8,7.4h-92.7c-4.4,0-8-3.3-8-7.4l0-68.4L237.3,366.9z"/>
		<g id="XMLID_128_">
			<line id="XMLID_131_" class="st11" x1="266.1" y1="441.4" x2="266.1" y2="453.7"/>
			<line id="XMLID_129_" class="st11" x1="261.3" y1="441.4" x2="261.3" y2="453.7"/>
		</g>
		<g id="XMLID_123_">
			<line id="XMLID_127_" class="st11" x1="335.6" y1="441.4" x2="335.6" y2="453.7"/>
			<line id="XMLID_125_" class="st11" x1="330.8" y1="441.4" x2="330.8" y2="453.7"/>
		</g>
		<g id="XMLID_120_">
			<line id="XMLID_122_" class="st11" x1="366.8" y1="380.7" x2="353.7" y2="380.7"/>
			<line id="XMLID_121_" class="st11" x1="366.8" y1="376.3" x2="353.7" y2="376.3"/>
		</g>
		<g id="XMLID_117_">
			<line id="XMLID_119_" class="st11" x1="248.2" y1="380.7" x2="235.1" y2="380.7"/>
			<line id="XMLID_118_" class="st11" x1="248.2" y1="376.3" x2="235.1" y2="376.3"/>
		</g>
	</g>
	<g id="XMLID_73_">
		<path id="XMLID_114_" class="st12" d="M624.6,366.9v68.4c0,9,7.9,16.3,17.6,16.3h92.7c9.7,0,17.6-7.3,17.6-16.3v-68.4l-9.6,0v68.4
			c0,4.1-3.6,7.4-8,7.4h-92.7c-4.4,0-8-3.3-8-7.4v-68.4L624.6,366.9z"/>
		<g id="XMLID_110_">
			<line id="XMLID_113_" class="st11" x1="653.3" y1="441.4" x2="653.3" y2="453.7"/>
			<line id="XMLID_112_" class="st11" x1="648.5" y1="441.4" x2="648.5" y2="453.7"/>
		</g>
		<g id="XMLID_98_">
			<line id="XMLID_109_" class="st11" x1="722.8" y1="441.4" x2="722.8" y2="453.7"/>
			<line id="XMLID_99_" class="st11" x1="718" y1="441.4" x2="718" y2="453.7"/>
		</g>
		<g id="XMLID_77_">
			<line id="XMLID_95_" class="st11" x1="754.1" y1="380.7" x2="740.9" y2="380.7"/>
			<line id="XMLID_90_" class="st11" x1="754.1" y1="376.3" x2="740.9" y2="376.3"/>
		</g>
		<g id="XMLID_74_">
			<line id="XMLID_76_" class="st11" x1="635.4" y1="380.7" x2="622.3" y2="380.7"/>
			<line id="XMLID_75_" class="st11" x1="635.4" y1="376.3" x2="622.3" y2="376.3"/>
		</g>
	</g>
</g>
<path id="XMLID_52_" class="st13" d="M251.5,278.8H245c-8,0-14.4,6.5-14.4,14.4v8.4h35.4v-8.4C265.9,285.3,259.5,278.8,251.5,278.8z
	"/>
<path id="XMLID_71_" class="st13" d="M747.5,278.8c-3.8,0-7.3,1.2-10.1,3.2c-4.3-7.2-12.1-11.9-21-11.9c-11.1,0-20.4,7.4-23.4,17.4
	c-3-2.2-6.6-3.5-10.6-3.5c-9.8,0-17.7,7.9-17.7,17.7v0h27.2h8.1h29.8h11h24.4v-5.2C765.2,286.8,757.3,278.8,747.5,278.8z"/>
<g id="XMLID_48_">
	<polygon id="XMLID_61_" class="st8" points="435.8,301.7 554.9,178.2 673.9,301.7 	"/>
	<path id="XMLID_62_" class="st12" d="M574,301.7V269c0-10.2,8.3-18.6,18.6-18.6h32l-8.3-8.6h-23.9c-16.1,0-29.1,13-29.1,29.1v30.7
		H574z"/>
</g>
<path id="XMLID_68_" class="st12" d="M796,320.6c-3-10.9-13.1-18.9-24.9-18.9H563.2l0,0c0,10.5,8.5,18.9,18.9,18.9H796z"/>
<path id="XMLID_67_" class="st6" d="M484.8,285.2c-2.7,0-5.2,0.9-7.3,2.3c-3.1-5.2-8.7-8.6-15.2-8.6c-8,0-14.8,5.3-16.9,12.6
	c-2.1-1.6-4.8-2.6-7.7-2.6c-7.1,0-12.8,5.7-12.8,12.8v0h19.7h5.9H472h8h17.6V298C497.6,290.9,491.9,285.2,484.8,285.2z"/>
<g id="XMLID_81_">
	<polygon id="XMLID_78_" class="st14" points="329.7,275.6 312,293.3 272.8,293.3 290.5,275.6 	"/>
	<g id="XMLID_64_">
		<line id="XMLID_79_" class="st11" x1="303.5" y1="275.6" x2="285.8" y2="293.3"/>
		<line id="XMLID_80_" class="st11" x1="316.7" y1="275.6" x2="299" y2="293.3"/>
	</g>
	<line id="XMLID_82_" class="st11" x1="281.7" y1="284.4" x2="320.8" y2="284.4"/>
	<rect id="XMLID_83_" x="297" y="293.3" class="st14" width="5.4" height="8.4"/>
</g>
<g id="XMLID_85_">
	<polygon id="XMLID_94_" class="st14" points="404.9,275.6 387.1,293.3 348,293.3 365.7,275.6 	"/>
	<g id="XMLID_88_">
		<line id="XMLID_93_" class="st11" x1="378.7" y1="275.6" x2="361" y2="293.3"/>
		<line id="XMLID_89_" class="st11" x1="391.9" y1="275.6" x2="374.2" y2="293.3"/>
	</g>
	<line id="XMLID_87_" class="st11" x1="356.9" y1="284.4" x2="396" y2="284.4"/>
	<rect id="XMLID_86_" x="372.2" y="293.3" class="st14" width="5.4" height="8.4"/>
</g>
<circle id="XMLID_111_" class="st15" cx="361" cy="106.5" r="18.5"/>
<g id="XMLID_124_">
	<path id="XMLID_154_" class="st16" d="M361,133.1c-0.8,0-1.6,0-2.4-0.1c-0.7-0.1-1.2-0.6-1.1-1.3c0.1-0.7,0.7-1.2,1.3-1.1
		c0.7,0.1,1.5,0.1,2.2,0.1c0.7,0,1.2,0.5,1.2,1.2C362.2,132.5,361.7,133.1,361,133.1l0.1-1.2L361,133.1
		C361,133.1,361,133.1,361,133.1z M366.6,132.5c-0.6,0-1.1-0.4-1.2-0.9c-0.1-0.7,0.3-1.3,0.9-1.4c0.7-0.2,1.5-0.4,2.2-0.6
		c0.6-0.2,1.3,0.1,1.5,0.8c0.2,0.6-0.1,1.3-0.8,1.5c-0.8,0.3-1.6,0.5-2.4,0.7C366.8,132.4,366.7,132.5,366.6,132.5z M353.2,131.9
		c-0.1,0-0.2,0-0.4-0.1c-0.8-0.3-1.6-0.6-2.3-0.9c-0.6-0.3-0.9-1-0.6-1.6c0.3-0.6,1-0.9,1.6-0.6c0.7,0.3,1.4,0.6,2.1,0.8
		c0.6,0.2,1,0.9,0.8,1.5C354.2,131.5,353.7,131.9,353.2,131.9z M374,129.5c-0.4,0-0.8-0.2-1-0.6c-0.3-0.6-0.2-1.3,0.4-1.7
		c0.7-0.4,1.3-0.8,1.9-1.3c0.5-0.4,1.3-0.3,1.7,0.3c0.4,0.5,0.3,1.3-0.3,1.7c-0.7,0.5-1.4,1-2.1,1.4
		C374.4,129.5,374.2,129.5,374,129.5z M346.1,128.3c-0.2,0-0.5-0.1-0.7-0.2c-0.7-0.5-1.3-1-2-1.6c-0.5-0.4-0.6-1.2-0.1-1.7
		c0.4-0.5,1.2-0.6,1.7-0.1c0.6,0.5,1.2,1,1.8,1.4c0.5,0.4,0.7,1.1,0.3,1.7C346.9,128.1,346.5,128.3,346.1,128.3z M380.1,124.4
		c-0.3,0-0.6-0.1-0.8-0.3c-0.5-0.4-0.6-1.2-0.1-1.7c0.5-0.6,1-1.2,1.4-1.8c0.4-0.5,1.2-0.7,1.7-0.3c0.5,0.4,0.7,1.1,0.3,1.7
		c-0.5,0.7-1,1.3-1.6,2C380.7,124.3,380.4,124.4,380.1,124.4z M340.5,122.7c-0.4,0-0.7-0.2-1-0.5c-0.5-0.7-1-1.4-1.4-2.1
		c-0.3-0.6-0.2-1.3,0.4-1.7c0.6-0.3,1.3-0.2,1.7,0.4c0.4,0.6,0.8,1.3,1.3,1.9c0.4,0.5,0.3,1.3-0.3,1.7
		C341,122.6,340.7,122.7,340.5,122.7z M384.3,117.7c-0.2,0-0.3,0-0.5-0.1c-0.6-0.3-0.9-1-0.6-1.6c0.3-0.7,0.6-1.4,0.8-2.1
		c0.2-0.6,0.9-1,1.5-0.8c0.6,0.2,1,0.9,0.8,1.5c-0.3,0.8-0.6,1.6-0.9,2.3C385.2,117.4,384.8,117.7,384.3,117.7z M336.8,115.6
		c-0.5,0-1-0.3-1.2-0.8c-0.3-0.8-0.5-1.6-0.7-2.4c-0.1-0.7,0.3-1.3,0.9-1.4c0.6-0.1,1.3,0.3,1.4,0.9c0.2,0.7,0.4,1.5,0.6,2.2
		c0.2,0.6-0.1,1.3-0.8,1.5C337.1,115.6,337,115.6,336.8,115.6z M386.3,110c0,0-0.1,0-0.1,0c-0.7-0.1-1.2-0.7-1.1-1.3
		c0.1-0.7,0.1-1.5,0.1-2.2c0-0.7,0.5-1.2,1.2-1.2c0.7,0,1.2,0.5,1.2,1.2v0c0,0.8,0,1.6-0.1,2.5C387.4,109.5,386.9,110,386.3,110z
		 M335.6,107.8c-0.7,0-1.2-0.5-1.2-1.2l0-0.1c0-0.8,0-1.7,0.1-2.5c0.1-0.7,0.7-1.2,1.3-1.1c0.7,0.1,1.2,0.7,1.1,1.3
		c-0.1,0.8-0.1,1.5-0.1,2.3l0,0.1C336.8,107.2,336.2,107.8,335.6,107.8z M385.8,102.1c-0.6,0-1.1-0.4-1.2-0.9
		c-0.2-0.7-0.4-1.5-0.6-2.2c-0.2-0.6,0.1-1.3,0.8-1.5c0.6-0.2,1.3,0.1,1.5,0.8c0.3,0.8,0.5,1.6,0.7,2.4c0.1,0.7-0.3,1.3-0.9,1.4
		C385.9,102.1,385.8,102.1,385.8,102.1z M336.8,99.8c-0.1,0-0.3,0-0.4-0.1c-0.6-0.2-1-0.9-0.8-1.5c0.3-0.8,0.6-1.6,0.9-2.3
		c0.3-0.6,1-0.9,1.6-0.6c0.6,0.3,0.9,1,0.6,1.6c-0.3,0.7-0.6,1.4-0.8,2.1C337.8,99.5,337.3,99.8,336.8,99.8z M382.8,94.7
		c-0.4,0-0.8-0.2-1-0.6c-0.4-0.6-0.8-1.3-1.3-1.9c-0.4-0.5-0.3-1.3,0.3-1.7c0.5-0.4,1.3-0.3,1.7,0.3c0.5,0.7,1,1.4,1.4,2.1
		c0.3,0.6,0.2,1.3-0.4,1.7C383.2,94.7,383,94.7,382.8,94.7z M340.4,92.7c-0.2,0-0.5-0.1-0.7-0.2c-0.5-0.4-0.7-1.2-0.3-1.7
		c0.5-0.7,1-1.3,1.6-2c0.4-0.5,1.2-0.5,1.7-0.1c0.5,0.4,0.5,1.2,0.1,1.7c-0.5,0.6-1,1.2-1.4,1.8C341.2,92.6,340.8,92.7,340.4,92.7z
		 M377.7,88.6c-0.3,0-0.6-0.1-0.8-0.3c-0.6-0.5-1.2-1-1.8-1.4c-0.5-0.4-0.7-1.2-0.3-1.7s1.2-0.7,1.7-0.3c0.7,0.5,1.3,1,2,1.6
		c0.5,0.4,0.6,1.2,0.1,1.7C378.4,88.5,378.1,88.6,377.7,88.6z M346,87.1c-0.4,0-0.7-0.2-1-0.5c-0.4-0.5-0.3-1.3,0.3-1.7
		c0.7-0.5,1.4-1,2.1-1.4c0.6-0.3,1.3-0.2,1.7,0.4c0.3,0.6,0.2,1.3-0.4,1.7c-0.7,0.4-1.3,0.8-1.9,1.3C346.5,87.1,346.3,87.1,346,87.1
		z M371,84.3c-0.2,0-0.3,0-0.5-0.1c-0.7-0.3-1.4-0.6-2.1-0.8c-0.6-0.2-1-0.9-0.8-1.5c0.2-0.6,0.9-1,1.5-0.8c0.8,0.3,1.6,0.6,2.3,0.9
		c0.6,0.3,0.9,1,0.6,1.6C371.9,84.1,371.5,84.3,371,84.3z M353.1,83.5c-0.5,0-1-0.3-1.2-0.8c-0.2-0.6,0.1-1.3,0.8-1.5
		c0.8-0.3,1.6-0.5,2.4-0.7c0.7-0.1,1.3,0.3,1.4,0.9c0.1,0.7-0.3,1.3-0.9,1.4c-0.7,0.2-1.5,0.4-2.2,0.6
		C353.4,83.5,353.2,83.5,353.1,83.5z M363.3,82.4c0,0-0.1,0-0.1,0c-0.7-0.1-1.5-0.1-2.3-0.1c-0.7,0-1.2-0.5-1.2-1.2
		c0-0.7,0.5-1.2,1.2-1.2h0c0.8,0,1.7,0,2.5,0.1c0.7,0.1,1.2,0.7,1.1,1.3C364.5,81.9,364,82.4,363.3,82.4z"/>
</g>
<path id="XMLID_130_" class="st9" d="M311.3,134.3c-2.5,0-4.7,1-6.3,2.7c0-8.2-6.6-14.8-14.8-14.8c-6.2,0-11.4,3.8-13.7,9.1
	c-1.8-1.2-4-2-6.4-2c-6.2,0-11.2,5-11.2,11.2c0,6.2,5,11.2,11.2,11.2h41.2c4.8,0,8.8-3.9,8.8-8.8
	C320.1,138.2,316.2,134.3,311.3,134.3z"/>
<path id="XMLID_126_" class="st9" d="M470.9,135.2c-2.6,0-5,1.1-6.6,2.8c0-8.6-7-15.6-15.6-15.6c-6.5,0-12,4-14.4,9.6
	c-1.9-1.3-4.2-2.1-6.7-2.1c-6.5,0-11.8,5.3-11.8,11.8c0,6.5,5.3,11.8,11.8,11.8h43.3c5.1,0,9.2-4.1,9.2-9.2
	C480.1,139.3,476,135.2,470.9,135.2z"/>
<path id="XMLID_145_" class="st9" d="M716.3,139.5c-2.9,0-5.4,1.2-7.3,3.1c0-9.4-7.7-17.1-17.1-17.1c-7.1,0-13.2,4.3-15.8,10.5
	c-2.1-1.4-4.6-2.3-7.4-2.3c-7.2,0-13,5.8-13,13c0,7.2,5.8,13,13,13h47.5c5.6,0,10.1-4.5,10.1-10.1
	C726.4,144,721.9,139.5,716.3,139.5z"/>
<g id="XMLID_21_">
	<polygon id="XMLID_104_" class="st7" points="512.6,209.6 479.8,209.6 479.8,227.7 476.6,229.4 476.6,301.7 548.5,301.7 
		548.5,229.4 	"/>
	<polygon id="XMLID_84_" class="st7" points="515.8,301.7 443.9,301.7 443.9,229.4 479.8,209.6 515.8,229.4 	"/>
	<rect id="XMLID_96_" x="515.8" y="229.4" class="st4" width="32.8" height="72.3"/>
	<g id="XMLID_97_">
		<polygon id="XMLID_100_" class="st14" points="453.5,301.7 453.5,235.1 479.8,220.5 506.2,235.1 506.2,301.7 		"/>
		<polygon id="XMLID_101_" class="st14" points="453.5,301.7 453.5,235.1 479.8,220.5 506.2,235.1 506.2,301.7 		"/>
	</g>
	<rect id="XMLID_102_" x="453.5" y="235.1" class="st17" width="4.7" height="66.6"/>
	<polygon id="XMLID_103_" class="st17" points="453.5,235.1 458.1,236.2 483.7,222.7 479.8,220.5 	"/>
	<line id="XMLID_105_" class="st11" x1="453.5" y1="257.8" x2="506.2" y2="257.8"/>
	<line id="XMLID_107_" class="st11" x1="453.5" y1="282.4" x2="506.2" y2="282.4"/>
	<line id="XMLID_108_" class="st11" x1="483.7" y1="222.7" x2="483.7" y2="301.7"/>
	<rect id="XMLID_116_" x="527.4" y="251.2" class="st12" width="11.8" height="28.7"/>
	<line id="XMLID_141_" class="st12" x1="527.4" y1="265.6" x2="539.2" y2="265.6"/>
	<line id="XMLID_142_" class="st12" x1="533.3" y1="251.2" x2="533.3" y2="279.9"/>
	<polygon id="XMLID_143_" class="st14" points="520.7,214.1 539.2,224.3 523.7,224.3 505.2,214.1 	"/>
	<line id="XMLID_144_" class="st14" x1="515" y1="219.2" x2="530" y2="219.2"/>
</g>
<path id="XMLID_159_" class="st9" d="M587.5,108.5c-2.5,0-4.8,0.8-6.7,2.1c-2.3-5.6-7.9-9.6-14.4-9.6c-8.6,0-15.6,7-15.6,15.6
	c-1.7-1.7-4-2.8-6.6-2.8c-5.1,0-9.2,4.1-9.2,9.2c0,0.1,0,0.3,0,0.4h-0.3c-0.9-2.5-3.3-4.4-6.2-4.4c-3.6,0-6.6,3-6.6,6.6
	c0,3.6,3,6.6,6.6,6.6h15.7H556h31.5c6.5,0,11.8-5.3,11.8-11.8C599.3,113.8,594,108.5,587.5,108.5z"/>
<line id="XMLID_146_" class="st9" x1="672.9" y1="149.1" x2="629.5" y2="149.1"/>
<line id="XMLID_147_" class="st9" x1="763.9" y1="164.9" x2="746.6" y2="164.9"/>
<line id="XMLID_160_" class="st9" x1="517.1" y1="105.8" x2="497.3" y2="105.8"/>
<line id="XMLID_161_" class="st9" x1="490" y1="105.8" x2="477.5" y2="105.8"/>
<line id="XMLID_162_" class="st9" x1="245.3" y1="142.8" x2="230.5" y2="142.8"/>
<line id="XMLID_163_" class="st9" x1="422.1" y1="144" x2="409.6" y2="144"/>
<line id="XMLID_158_" class="st9" x1="693.4" y1="100.9" x2="687.3" y2="100.9"/>
<line id="XMLID_164_" class="st9" x1="672.4" y1="100.9" x2="666.3" y2="100.9"/>
<line id="XMLID_106_" class="st11" x1="230.6" y1="206.1" x2="216.6" y2="206.1"/>
</svg>
